<?xml version="1.0" encoding="UTF-8" standalone="no"?>
<!-- Created with Inkscape (http://www.inkscape.org/) -->

<svg
   version="1.1"
   id="svg1"
   width="216"
   height="73.333336"
   viewBox="0 0 216 73.333336"
   sodipodi:docname="GLV.svg"
   inkscape:export-filename="GLV.svg"
   inkscape:export-xdpi="96"
   inkscape:export-ydpi="96"
   inkscape:version="1.4.3 (0d15f75, 2025-12-25)"
   xmlns:inkscape="http://www.inkscape.org/namespaces/inkscape"
   xmlns:sodipodi="http://sodipodi.sourceforge.net/DTD/sodipodi-0.dtd"
   xmlns="http://www.w3.org/2000/svg"
   xmlns:svg="http://www.w3.org/2000/svg">
  <sodipodi:namedview
     id="namedview1"
     pagecolor="#505050"
     bordercolor="#eeeeee"
     borderopacity="1"
     inkscape:showpageshadow="0"
     inkscape:pageopacity="0"
     inkscape:pagecheckerboard="0"
     inkscape:deskcolor="#505050"
     inkscape:export-bgcolor="#ffffff00"
     inkscape:zoom="1.6851852"
     inkscape:cx="98.505494"
     inkscape:cy="-1.4835165"
     inkscape:window-width="1600"
     inkscape:window-height="837"
     inkscape:window-x="-8"
     inkscape:window-y="168"
     inkscape:window-maximized="1"
     inkscape:current-layer="svg1" />
  <defs
     id="defs1" />
  <g
     id="g1"
     style="fill:currentColor;fill-opacity:1">
    <path
       id="path1"
       d="M 77.77,0 66.965,0.027 c -0.93,0 -1.68,0.782 -1.668,1.735 l 0.355,39.043 c 0.453,9.988 6.071,13.359 13.309,14.047 0.891,0.082 2.336,0.109 3.23,0.109 L 105.641,55 c 0.89,0 1.613,-0.742 1.605,-1.66 l -0.062,-8.848 c -0.008,-0.922 -0.735,-1.664 -1.629,-1.668 L 85.91,42.734 C 85.016,42.73 83.574,42.602 82.723,42.328 81.133,41.812 79.75,40.844 79.352,38.07 79.223,37.164 79.242,35.672 79.246,34.754 L 79.438,1.719 C 79.445,0.77 78.695,-0.004 77.77,0 Z M 23.184,0.156 C 8.031,1.637 -0.379,11.559 0.012,27.73 0.055,45.863 9.07,53.18 22.66,54.984 l 31.996,-0.007 c 1.996,0 3.621,-1.653 3.637,-3.7 l 0.199,-24.73 C 58.5,25.34 57.555,24.355 56.379,24.352 L 33.906,24.246 c -1.179,-0.004 -2.14,0.965 -2.156,2.176 l -0.07,6.609 c -0.016,1.199 0.933,2.176 2.101,2.164 l 8.071,-0.086 c 1.187,-0.015 2.168,0.942 2.214,2.161 l 0.145,3.644 c 0.047,1.188 -0.883,2.172 -2.043,2.164 L 29.066,42.984 C 27.891,42.977 25.98,42.922 24.824,42.711 17.352,41.34 15.973,35.73 15.621,31.977 15.512,30.773 15.426,28.816 15.441,27.609 15.547,18.48 19.598,14.996 26.805,14.68 l 29.324,0.476 c 1.172,0.016 2.133,-0.949 2.144,-2.152 L 58.359,2.648 C 58.367,1.441 57.426,0.453 56.25,0.445 Z m 88.214,0.625 -12.5,0.024 c -0.847,0 -1.402,0.898 -1.05,1.683 l 23.293,51.707 c 0.164,0.371 0.523,0.61 0.921,0.614 l 13.551,0.086 c 0.664,0.003 1.27,-0.379 1.559,-0.993 L 161.949,1.793 c 0.16,-0.336 -0.074,-0.723 -0.437,-0.727 L 148.734,0.973 c -0.601,-0.004 -1.148,0.351 -1.406,0.906 l -17.535,38.137 c -0.219,0.476 -0.879,0.468 -1.086,-0.016 L 112.352,1.422 c -0.164,-0.391 -0.54,-0.641 -0.954,-0.641 z"
          style="fill:currentColor;fill-opacity:1;fill-rule:nonzero;stroke:none"
       transform="scale(1.3333333)" />
  </g>
</svg>
