<?xml version="1.0" encoding="UTF-8" standalone="no"?>
<!-- Created with Inkscape (http://www.inkscape.org/) -->

<svg
   version="1.1"
   id="svg1"
   width="862.13452"
   height="73.333351"
   viewBox="0 0 862.13452 73.333351"
   sodipodi:docname="GLV.svg"
   inkscape:export-filename="GLV.svg"
   inkscape:export-xdpi="96"
   inkscape:export-ydpi="96"
   inkscape:version="1.4.3 (0d15f75, 2025-12-25)"
   xmlns:inkscape="http://www.inkscape.org/namespaces/inkscape"
   xmlns:sodipodi="http://sodipodi.sourceforge.net/DTD/sodipodi-0.dtd"
   xmlns="http://www.w3.org/2000/svg"
   xmlns:svg="http://www.w3.org/2000/svg">
  <sodipodi:namedview
     id="namedview1"
     pagecolor="#505050"
     bordercolor="#eeeeee"
     borderopacity="1"
     inkscape:showpageshadow="0"
     inkscape:pageopacity="0"
     inkscape:pagecheckerboard="0"
     inkscape:deskcolor="#505050"
     inkscape:export-bgcolor="#ffffff00"
     inkscape:zoom="1.6851852"
     inkscape:cx="98.505494"
     inkscape:cy="-1.4835165"
     inkscape:window-width="1600"
     inkscape:window-height="837"
     inkscape:window-x="-8"
     inkscape:window-y="168"
     inkscape:window-maximized="1"
     inkscape:current-layer="svg1">
    <inkscape:page
       x="0"
       y="0"
       width="862.13452"
       height="73.333351"
       id="page2"
       margin="0"
       bleed="0" />
  </sodipodi:namedview>
  <defs
     id="defs1" />
  <path
     style="fill:#3b82f6;fill-opacity:1;fill-rule:nonzero;stroke:none;stroke-width:1.33333"
     d="m 148.53206,1.0413539 -16.66666,0.032 c -1.12934,0 -1.86934,1.1973333 -1.4,2.2439999 l 31.05733,68.9426652 c 0.21867,0.494666 0.69733,0.813333 1.228,0.818666 l 18.068,0.114667 c 0.88533,0.004 1.69333,-0.505333 2.07867,-1.324 l 33.036,-69.4786648 c 0.21333,-0.448 -0.0987,-0.964 -0.58267,-0.9693333 l -17.03733,-0.124 c -0.80134,-0.00533 -1.53067,0.468 -1.87467,1.2079999 l -23.38,50.8493322 c -0.292,0.634667 -1.172,0.624 -1.448,-0.02133 L 149.80406,1.8960205 c -0.21866,-0.5213333 -0.72,-0.8546666 -1.272,-0.8546666 z"
     id="path15" />
  <path
     style="fill:#3b82f6;fill-opacity:1;fill-rule:nonzero;stroke:none;stroke-width:1.33333"
     d="M 30.9134,0.20802057 C 10.709401,2.1826872 -0.50393226,15.41202 0.01740106,36.973353 0.07473439,61.150686 12.094734,70.906685 30.214734,73.312019 l 42.661332,-0.0093 c 2.661333,0 4.828,-2.204 4.849333,-4.933333 L 77.990732,35.39602 c 0.01067,-1.609334 -1.249333,-2.922667 -2.817333,-2.926667 L 45.2094,32.32802 c -1.572,-0.0053 -2.853333,1.286666 -2.874667,2.901333 l -0.09333,8.812 c -0.02133,1.598666 1.244,2.901333 2.801333,2.885333 l 10.761333,-0.114667 c 1.582667,-0.02 2.890667,1.256 2.952,2.881334 l 0.193334,4.858666 c 0.06267,1.584 -1.177334,2.896 -2.724,2.885333 L 38.756067,57.312019 c -1.566667,-0.0093 -4.114667,-0.08267 -5.656,-0.364 -9.962667,-1.828 -11.801333,-9.308 -12.270666,-14.311999 -0.145334,-1.605334 -0.26,-4.214667 -0.24,-5.824 0.141333,-12.172 5.542666,-16.817333 15.151999,-17.238667 l 39.098666,0.634667 c 1.562666,0.02133 2.844,-1.265333 2.858666,-2.869333 L 77.813399,3.5306872 c 0.01067,-1.6093333 -1.244,-2.92666664 -2.812,-2.9373333 z"
     id="path14" />
  <path
     style="fill:#3b82f6;fill-opacity:1;fill-rule:nonzero;stroke:none;stroke-width:1.33333"
     d="M 103.69473,2.0579231e-5 89.288065,0.03602058 c -1.239999,0 -2.239999,1.04266662 -2.223999,2.31333332 l 0.473333,52.0573321 c 0.604,13.317333 8.094666,17.811999 17.745331,18.729333 1.188,0.109333 3.11467,0.145333 4.30667,0.145333 l 31.26666,0.052 c 1.18667,0 2.15067,-0.989333 2.14,-2.213333 l -0.0827,-11.797333 c -0.0107,-1.229334 -0.98,-2.218667 -2.172,-2.224 l -26.19334,-0.12 c -1.192,-0.0053 -3.11466,-0.176 -4.24933,-0.541333 -2.12,-0.688 -3.964,-1.978667 -4.49466,-5.677334 -0.172,-1.208 -0.14667,-3.197333 -0.14134,-4.421333 l 0.256,-44.0466655 c 0.009,-1.2653333 -0.99066,-2.29733325 -2.224,-2.291999920769 z"
     id="path1" />
  <path
     id="path13"
     style="font-weight:900;font-size:64px;font-family:'Segoe UI';-inkscape-font-specification:'Segoe UI, Heavy';white-space:pre;fill:#ffffff;stroke-width:1.50444"
     d="m 827.29727,17.46507 h -0.47013 q -0.094,1.128332 -0.6582,3.714093 -0.56416,2.585761 -5.68867,22.190531 h 12.88179 l -4.70138,-18.335396 q -0.9873,-4.04319 -1.36341,-7.569228 z m 12.78777,52.749526 -2.96187,-12.411653 H 817.00124 L 813.8043,70.214596 H 791.84884 L 815.07368,2.7967527 h 25.19941 l 21.86144,67.4178433 z" />
  <path
     style="font-weight:900;font-size:64px;font-family:'Segoe UI';-inkscape-font-specification:'Segoe UI, Heavy';white-space:pre;fill:#ffffff;stroke-width:1.50444"
     d="M 764.25172,70.214596 V 2.7967527 H 784.5617 V 70.214596 Z"
     id="path12" />
  <path
     style="font-weight:900;font-size:64px;font-family:'Segoe UI';-inkscape-font-specification:'Segoe UI, Heavy';white-space:pre;fill:#ffffff;stroke-width:1.50444"
     d="m 753.29749,65.795295 q -3.80812,2.162636 -11.37734,3.902148 -7.56923,1.692499 -14.43325,1.692499 -17.72422,0 -27.36206,-8.838602 -9.63783,-8.885615 -9.63783,-24.87032 0,-10.719155 4.84242,-19.040604 4.88944,-8.321449 13.72804,-12.6467223 8.8386,-4.3252731 20.82713,-4.3252731 8.79159,0 18.75852,2.4917334 v 17.724217 q -4.65437,-2.115623 -8.93263,-2.914858 -4.27825,-0.846249 -9.35575,-0.846249 -8.36846,0 -13.35193,5.03048 -4.93645,5.030481 -4.93645,13.822069 0,8.415476 4.13722,13.163874 4.18423,4.748398 11.65943,4.748398 3.47902,0 5.12451,-0.376111 V 44.874137 H 720.05871 V 29.500612 h 33.23878 z"
     id="path11" />
  <path
     id="path9"
     style="font-weight:900;font-size:64px;font-family:'Segoe UI';-inkscape-font-specification:'Segoe UI, Heavy';white-space:pre;fill:#ffffff;stroke-width:1.50444"
     d="m 663.17197,36.881785 q 0,-8.321449 -3.19694,-13.116861 -3.19694,-4.795411 -8.74458,-4.795411 -6.06478,0 -9.44978,4.607356 -3.38499,4.607356 -3.38499,13.022833 0,8.227421 3.33798,12.834778 3.38499,4.607356 9.1677,4.607356 3.52603,0 6.34686,-2.068609 2.82083,-2.068609 4.37229,-5.923744 1.55146,-3.855134 1.55146,-9.167698 z m 21.53234,-0.564166 q 0,10.154989 -4.37229,18.194355 -4.37229,7.992352 -12.2236,12.458667 -7.85131,4.419301 -17.58317,4.419301 -9.4968,0 -17.3011,-4.27826 -7.75728,-4.325273 -12.08255,-12.082556 -4.32528,-7.804297 -4.32528,-17.630189 0,-10.29603 4.37229,-18.523452 4.37229,-8.227421 12.27061,-12.693736 7.89833,-4.5133284 17.95929,-4.5133284 9.68485,0 17.30109,4.3252731 7.66326,4.2782593 11.80047,12.2706113 4.18424,7.945339 4.18424,18.053314 z" />
  <path
     style="font-weight:900;font-size:64px;font-family:'Segoe UI';-inkscape-font-specification:'Segoe UI, Heavy';white-space:pre;fill:#ffffff;stroke-width:1.50444"
     d="M 568.4861,70.214596 V 2.7967527 h 20.30998 V 54.323919 h 23.22483 v 15.890677 z"
     id="path8" />
  <path
     id="path6"
     style="font-weight:900;font-size:64px;font-family:'Segoe UI';-inkscape-font-specification:'Segoe UI, Heavy';white-space:pre;fill:#ffffff;stroke-width:1.50444"
     d="m 537.40995,36.881785 q 0,-8.321449 -3.19694,-13.116861 -3.19694,-4.795411 -8.74457,-4.795411 -6.06479,0 -9.44978,4.607356 -3.385,4.607356 -3.385,13.022833 0,8.227421 3.33798,12.834778 3.385,4.607356 9.1677,4.607356 3.52604,0 6.34687,-2.068609 2.82083,-2.068609 4.37229,-5.923744 1.55145,-3.855134 1.55145,-9.167698 z m 21.53234,-0.564166 q 0,10.154989 -4.37229,18.194355 -4.37228,7.992352 -12.22359,12.458667 -7.85132,4.419301 -17.58318,4.419301 -9.4968,0 -17.30109,-4.27826 -7.75729,-4.325273 -12.08256,-12.082556 -4.32527,-7.804297 -4.32527,-17.630189 0,-10.29603 4.37229,-18.523452 4.37228,-8.227421 12.27061,-12.693736 7.89832,-4.5133284 17.95928,-4.5133284 9.68485,0 17.30109,4.3252731 7.66326,4.2782593 11.80048,12.2706113 4.18423,7.945339 4.18423,18.053314 z" />
  <path
     style="font-weight:900;font-size:64px;font-family:'Segoe UI';-inkscape-font-specification:'Segoe UI, Heavy';white-space:pre;fill:#ffffff;stroke-width:1.50444"
     d="m 463.73927,70.214596 -23.789,-32.533576 q -2.82083,-3.855135 -4.60736,-6.958048 h -0.18805 q 0.28208,4.983467 0.28208,11.189294 v 28.30233 H 416.6314 V 2.7967527 h 19.18165 l 22.80171,30.9351053 q 0.42313,0.61118 1.0343,1.457429 0.61118,0.846249 1.22236,1.739512 0.61118,0.893263 1.12834,1.739512 0.56416,0.846249 0.84625,1.504443 h 0.18805 q -0.28208,-2.068609 -0.28208,-7.146104 V 2.7967527 h 18.80553 V 70.214596 Z"
     id="path5" />
  <path
     style="font-weight:900;font-size:64px;font-family:'Segoe UI';-inkscape-font-specification:'Segoe UI, Heavy';white-space:pre;fill:#ffffff;stroke-width:1.50444"
     d="m 406.14732,68.381056 q -8.36847,3.008886 -19.32269,3.008886 -10.76617,0 -18.57047,-4.090204 -7.80429,-4.137218 -11.94151,-11.706446 -4.0902,-7.616241 -4.0902,-17.536161 0,-10.672141 4.60735,-18.993591 4.60736,-8.321449 13.02284,-12.8347771 8.41547,-4.5603423 19.3697,-4.5603423 8.74457,0 16.92498,2.1156227 V 22.542564 q -2.82083,-1.692498 -6.72298,-2.632774 -3.90215,-0.940277 -7.89833,-0.940277 -8.27443,0 -13.06984,4.748397 -4.7484,4.748398 -4.7484,12.881792 0,8.08638 4.7484,12.787764 4.79541,4.65437 12.78776,4.65437 7.38117,0 14.90339,-3.761107 z"
     id="path4" />
  <path
     style="font-weight:900;font-size:64px;font-family:'Segoe UI';-inkscape-font-specification:'Segoe UI, Heavy';white-space:pre;fill:#ffffff;stroke-width:1.50444"
     d="M 302.85792,70.214596 V 2.7967527 h 41.98335 V 18.68743 h -21.67338 v 9.825892 h 20.357 v 15.890677 h -20.357 v 9.91992 h 23.22484 v 15.890677 z"
     id="path3" />
  <path
     style="font-weight:900;font-size:64px;font-family:'Segoe UI';-inkscape-font-specification:'Segoe UI, Heavy';white-space:pre;fill:#ffffff;stroke-width:1.50444"
     d="M 275.68392,18.68743 V 70.214596 H 255.27991 V 18.68743 H 236.42736 V 2.7967527 h 58.34418 V 18.68743 Z"
     id="text2" />
</svg>
